<svg xmlns="http://www.w3.org/2000/svg" viewBox="0 0 192 192" width="192" height="192">
  <defs>
    <linearGradient id="bgGrad192" x1="0%" y1="0%" x2="100%" y2="100%">
      <stop offset="0%" stop-color="#0f172a"/>
      <stop offset="50%" stop-color="#1e1b4b"/>
      <stop offset="100%" stop-color="#0f172a"/>
    </linearGradient>
    <linearGradient id="pillGrad192" x1="0%" y1="0%" x2="100%" y2="100%">
      <stop offset="0%" stop-color="#38bdf8"/>
      <stop offset="50%" stop-color="#6366f1"/>
      <stop offset="100%" stop-color="#a855f7"/>
    </linearGradient>
    <linearGradient id="crossGrad192" x1="0%" y1="0%" x2="100%" y2="100%">
      <stop offset="0%" stop-color="#10b981"/>
      <stop offset="100%" stop-color="#06b6d4"/>
    </linearGradient>
  </defs>

  <!-- Background rounded canvas -->
  <rect width="192" height="192" rx="42" fill="url(#bgGrad192)"/>
  <rect width="186" height="186" x="3" y="3" rx="39" fill="none" stroke="#6366f1" stroke-width="2.5" stroke-opacity="0.3"/>

  <!-- Medical Cross -->
  <rect x="52" y="80" width="88" height="32" rx="10" fill="url(#crossGrad192)"/>
  <rect x="80" y="52" width="32" height="88" rx="10" fill="url(#crossGrad192)"/>

  <!-- Center Capsule -->
  <g transform="translate(96, 96) rotate(-45) translate(-96, -96)">
    <path d="M 82,74 C 82,66 88,60 96,60 C 104,60 110,66 110,74 L 110,96 L 82,96 Z" fill="#ffffff"/>
    <path d="M 82,96 L 110,96 L 110,118 C 110,126 104,132 96,132 C 88,132 82,126 82,118 Z" fill="url(#pillGrad192)"/>
    <line x1="82" y1="96" x2="110" y2="96" stroke="#0f172a" stroke-width="2"/>
  </g>
</svg>
